<?xml version="1.0" encoding="UTF-8"?>
<svg id="Layer_2" data-name="Layer 2" xmlns="http://www.w3.org/2000/svg" xmlns:xlink="http://www.w3.org/1999/xlink" viewBox="0 0 200 200.01">
  <defs>
    <style>
      .cls-1 {
        fill: url(#linear-gradient);
      }

      .cls-2 {
        fill: #f8f7f7;
      }

      .cls-3 {
        fill: #fff;
      }

      .cls-4 {
        fill: #eda42f;
      }

      .cls-5 {
        fill: url(#linear-gradient-8);
      }

      .cls-6 {
        fill: url(#linear-gradient-9);
      }

      .cls-7 {
        fill: url(#linear-gradient-3);
      }

      .cls-8 {
        fill: url(#linear-gradient-4);
      }

      .cls-9 {
        fill: url(#linear-gradient-2);
      }

      .cls-10 {
        fill: url(#linear-gradient-6);
      }

      .cls-11 {
        fill: url(#linear-gradient-7);
      }

      .cls-12 {
        fill: url(#linear-gradient-5);
      }

      .cls-13 {
        fill: url(#linear-gradient-12);
      }

      .cls-14 {
        fill: url(#linear-gradient-10);
      }

      .cls-15 {
        fill: url(#linear-gradient-11);
      }
    </style>
    <linearGradient id="linear-gradient" x1="6228.98" y1="-6246.81" x2="6189.74" y2="-6263.47" gradientTransform="translate(-6096 6293.42)" gradientUnits="userSpaceOnUse">
      <stop offset="0" stop-color="#b7c636"/>
      <stop offset="1" stop-color="#f6cb26"/>
    </linearGradient>
    <linearGradient id="linear-gradient-2" x1="6200.98" y1="-6260.45" x2="6159.94" y2="-6247.91" gradientTransform="translate(-6096 6293.42)" gradientUnits="userSpaceOnUse">
      <stop offset="0" stop-color="#f9ca24"/>
      <stop offset="1" stop-color="#f79722"/>
    </linearGradient>
    <linearGradient id="linear-gradient-3" x1="6160.03" y1="-6138.91" x2="6201.09" y2="-6126.36" gradientTransform="translate(-6096 6293.42)" gradientUnits="userSpaceOnUse">
      <stop offset="0" stop-color="#7a61aa"/>
      <stop offset="1" stop-color="#3b77bc"/>
    </linearGradient>
    <linearGradient id="linear-gradient-4" x1="6191.34" y1="-6126.86" x2="6232.62" y2="-6138.7" gradientTransform="translate(-6096 6293.42)" gradientUnits="userSpaceOnUse">
      <stop offset="0" stop-color="#2d7bbf"/>
      <stop offset="1" stop-color="#0a93d1"/>
    </linearGradient>
    <linearGradient id="linear-gradient-5" x1="6140.74" y1="-6231.15" x2="6130.33" y2="-6189.4" gradientTransform="translate(-6096 6293.42)" gradientUnits="userSpaceOnUse">
      <stop offset="0" stop-color="#ed6124"/>
      <stop offset="1" stop-color="#e44933"/>
    </linearGradient>
    <linearGradient id="linear-gradient-6" x1="6167.2" y1="-6254.15" x2="6137.85" y2="-6222.68" gradientTransform="translate(-6096 6293.42)" gradientUnits="userSpaceOnUse">
      <stop offset="0" stop-color="#f78f21"/>
      <stop offset="1" stop-color="#f26b24"/>
    </linearGradient>
    <linearGradient id="linear-gradient-7" x1="6225.74" y1="-6134.98" x2="6256.64" y2="-6164.82" gradientTransform="translate(-6096 6293.42)" gradientUnits="userSpaceOnUse">
      <stop offset="0" stop-color="#0695d3"/>
      <stop offset="1" stop-color="#01b8c9"/>
    </linearGradient>
    <linearGradient id="linear-gradient-8" x1="6132.71" y1="-6196.01" x2="6138.71" y2="-6153.34" gradientTransform="translate(-6096 6293.42)" gradientUnits="userSpaceOnUse">
      <stop offset="0" stop-color="#db4441"/>
      <stop offset="1" stop-color="#b7437c"/>
    </linearGradient>
    <linearGradient id="linear-gradient-9" x1="6251.2" y1="-6155.7" x2="6261.61" y2="-6197.44" gradientTransform="translate(-6096 6293.42)" gradientUnits="userSpaceOnUse">
      <stop offset="0" stop-color="#27b9b7"/>
      <stop offset="1" stop-color="#6ebe4a"/>
    </linearGradient>
    <linearGradient id="linear-gradient-10" x1="6262.19" y1="-6188.76" x2="6251.06" y2="-6230.29" gradientTransform="translate(-6096 6293.42)" gradientUnits="userSpaceOnUse">
      <stop offset="0" stop-color="#69bd49"/>
      <stop offset="1" stop-color="#84bf43"/>
    </linearGradient>
    <linearGradient id="linear-gradient-11" x1="6254.13" y1="-6222.56" x2="6225.32" y2="-6254.56" gradientTransform="translate(-6096 6293.42)" gradientUnits="userSpaceOnUse">
      <stop offset="0" stop-color="#86be45"/>
      <stop offset="1" stop-color="#b1c43a"/>
    </linearGradient>
    <linearGradient id="linear-gradient-12" x1="6133.27" y1="-6164.86" x2="6166.04" y2="-6137.37" gradientTransform="translate(-6096 6293.42)" gradientUnits="userSpaceOnUse">
      <stop offset="0" stop-color="#aa478a"/>
      <stop offset="1" stop-color="#8659a5"/>
    </linearGradient>
  </defs>
  <g id="Layer_1-2" data-name="Layer 1">
    <g>
      <g>
        <path class="cls-1" d="M114.46,72.83s22.01-35.46,28.03-49.09c6.01-13.65-8.06-21.38-23.31-23.43-15.25-2.03-17.95,12.22-17.95,12.22,0,0,.03,53.02-.13,56.94-.14,2.78,.28,5.15,.57,6.39,3.18,.21,6.18,1.05,8.9,2.38,1.85-1.84,3.9-5.4,3.9-5.4Z"/>
        <path class="cls-9" d="M99.15,69.33c-.21-3.91-.16-56.9-.16-56.9,0,0-2.71-14.27-17.94-12.23-15.26,2.05-29.33,9.78-23.32,23.41,6.01,13.65,28.04,49.09,28.04,49.09,0,0,2.01,3.51,3.85,5.37,2.71-1.28,5.74-2.08,8.92-2.27,.29-1.21,.72-3.62,.62-6.48Z"/>
        <path class="cls-7" d="M85.56,127.2s-22.01,35.44-28.05,49.09c-6.01,13.64,8.05,21.37,23.31,23.41,15.27,2.04,17.97-12.21,17.97-12.21,0,0-.05-53,.12-56.92,.13-2.83-.29-5.22-.6-6.44-3.15-.21-6.16-1.03-8.88-2.33-1.83,1.85-3.87,5.41-3.87,5.41Z"/>
        <path class="cls-8" d="M100.87,130.68c.18,3.91,.14,56.92,.14,56.92,0,0,2.7,14.25,17.95,12.21,15.25-2.04,29.32-9.78,23.29-23.43-6.01-13.64-28.01-49.08-28.01-49.08,0,0-2.08-3.61-3.94-5.44-2.68,1.27-5.68,2.06-8.81,2.26-.31,1.19-.75,3.63-.63,6.56Z"/>
        <path class="cls-12" d="M72.82,85.57s-35.44-22.03-49.09-28.04C10.09,51.51,2.35,65.59,.3,80.83c-2.04,15.26,12.22,17.96,12.22,17.96,0,0,52.99-.05,56.9,.14,2.78,.13,5.14-.28,6.39-.58,.2-3.2,1.03-6.22,2.35-8.95-1.86-1.84-5.34-3.83-5.34-3.83Z"/>
        <path class="cls-10" d="M86.67,79.75c-.77-2.51-2.68-5.77-2.68-5.77,0,0-19.86-36.71-28.73-48.71-8.85-11.99-22.55-3.61-31.89,8.63-9.33,12.23,1.72,21.64,1.72,21.64,0,0,46.02,26.25,49.32,28.35,2.14,1.35,4.18,2.14,5.45,2.56,1.81-2.68,4.13-4.95,6.81-6.7Z"/>
        <path class="cls-11" d="M113.87,119.76c.66,2.54,2.81,6.19,2.81,6.19,0,0,19.86,36.7,28.71,48.7,8.87,11.99,22.55,3.62,31.91-8.62,9.33-12.23-1.72-21.66-1.72-21.66,0,0-46.02-26.24-49.33-28.33-2.54-1.62-4.95-2.44-6.09-2.75-1.65,2.53-3.81,4.75-6.29,6.48Z"/>
        <path class="cls-5" d="M69.33,100.89c-3.9,.16-56.92,.13-56.92,.13,0,0-14.26,2.69-12.22,17.93,2.04,15.27,9.77,29.33,23.43,23.32,13.63-6.01,49.08-28.02,49.08-28.02,0,0,3.51-2.03,5.37-3.86-1.3-2.73-2.11-5.75-2.29-8.93-1.23-.29-3.62-.71-6.47-.58Z"/>
        <path class="cls-6" d="M187.46,101.22s-52.99,.04-56.89-.14c-2.89-.13-5.31,.32-6.5,.61-.21,3.14-1.03,6.13-2.34,8.83,1.84,1.86,5.45,3.94,5.45,3.94,0,0,35.45,22.03,49.08,28.02,13.66,6.02,21.39-8.05,23.43-23.29,2.04-15.25-12.24-17.96-12.24-17.96Z"/>
        <path class="cls-14" d="M130.67,99.14c3.92-.17,56.92-.13,56.92-.13,0,0,14.26-2.7,12.21-17.96-2.04-15.25-9.78-29.31-23.4-23.3-13.64,6.02-49.11,28.03-49.11,28.03,0,0-3.6,2.07-5.44,3.93,1.27,2.7,2.06,5.66,2.26,8.81,1.16,.29,3.63,.76,6.56,.63Z"/>
        <path class="cls-15" d="M119.96,86.37c1.14-.32,3.55-1.14,6.08-2.73,3.32-2.08,49.41-28.23,49.41-28.23,0,0,11.07-9.38,1.76-21.63-9.32-12.27-22.99-20.68-31.88-8.7-8.88,11.95-28.82,48.62-28.82,48.62,0,0-2.26,3.81-2.86,6.33,2.47,1.71,4.61,3.85,6.32,6.34Z"/>
        <path class="cls-13" d="M79.6,113.1c-1.25,.36-3.42,1.18-5.68,2.63-3.3,2.09-49.28,28.43-49.28,28.43,0,0-11.03,9.44-1.66,21.66,9.36,12.21,23.07,20.58,31.9,8.56,8.85-12.02,28.62-48.74,28.62-48.74,0,0,1.91-3.27,2.66-5.75-2.61-1.81-4.84-4.13-6.56-6.79Z"/>
      </g>
      <g>
        <path class="cls-3" d="M124.14,99.98c0-.49,0-.98-.03-1.47-.2-3.15-.99-6.11-2.26-8.81-.56-1.16-1.18-2.28-1.89-3.33-1.71-2.48-3.85-4.63-6.32-6.34-.97-.67-2.01-1.28-3.08-1.8-2.71-1.33-5.71-2.16-8.9-2.38-.57-.04-1.14-.07-1.72-.07-.49,0-.96,0-1.42,.03-3.17,.19-6.2,.99-8.92,2.27-1.03,.47-2,1.04-2.95,1.67-2.68,1.75-5,4.02-6.81,6.7-.62,.92-1.19,1.91-1.7,2.94-1.32,2.73-2.16,5.75-2.35,8.95-.05,.55-.07,1.07-.07,1.64,0,.5,.02,1,.06,1.49,.18,3.18,.99,6.19,2.29,8.93,.43,.93,.95,1.83,1.52,2.71,1.72,2.66,3.95,4.97,6.56,6.79,1.05,.71,2.13,1.36,3.27,1.91,2.71,1.31,5.72,2.12,8.88,2.33,.55,.04,1.07,.07,1.64,.07,.5,0,1.03-.03,1.55-.07,3.12-.2,6.12-.99,8.81-2.26,1.25-.61,2.44-1.31,3.56-2.11,2.48-1.73,4.64-3.94,6.29-6.48,.59-.88,1.12-1.8,1.58-2.76,1.32-2.7,2.13-5.69,2.34-8.83,.05-.56,.06-1.14,.06-1.71Z"/>
        <path class="cls-4" d="M111.59,99.98c0,6.44-5.21,11.65-11.63,11.65s-11.67-5.21-11.67-11.65,5.23-11.64,11.67-11.64,11.63,5.21,11.63,11.64Z"/>
        <polygon class="cls-3" points="40.12 77.58 50.96 77.58 50.96 96.02 62.54 96.02 62.54 77.67 73.3 77.67 73.3 123.1 62.64 123.1 62.64 103.71 51.05 103.71 51.05 123.18 40.12 123.18 40.12 77.58"/>
        <polygon class="cls-2" points="122.06 77.58 133.22 77.68 141.62 109.37 149.87 77.58 159.23 77.58 167.31 109.37 174.18 77.67 186.13 77.67 173.7 123.18 162.21 123.18 154.66 94.07 146.17 122.9 134.39 122.9 122.06 77.58"/>
        <path class="cls-3" d="M9.85,120.86l2.41-7.52s10.01,5.73,13.16-1.39c3.16-7.14-8.43-7.78-13.16-14.29-4.74-6.48-1.31-21.04,12.7-21.23,9.1,.84,10.66,2.79,10.66,2.79l-2.33,6.49s-11.68-6.03-12.25,3.42c-.13,2.56,1.39,4.47,3.53,5.68,2.09,1.17,4.51,1.71,6.53,2.98,5.79,3.59,7.95,11.99,4.7,17.92-.72,1.32-1.7,2.49-2.8,3.53-1.13,1.04-2.71,2.6-4.15,3.17,0,0-9.28,3.72-19.01-1.55Z"/>
      </g>
    </g>
  </g>
</svg>